# xmcd
#
# Track frame offsets: 
#        150
#        12652
#        31163
#        52772
#        68774
#        84088
#        99509
#        110925
#        128387
#        146535
#        163440
#
# Disc length: 2464 seconds
#
# Revision: 1
# Processed by: cddbd v1.5.1PL0 Copyright (c) Steve Scherf et al.
# Submitted via: ExactAudioCopy v0.90b4
#
DISCID=8a099e0b
DTITLE=Radney Foster - And Then There's Me
DYEAR=2004
DGENRE=Country
TTITLE0=Figure It Out
TTITLE1=Never Gonna Fly
TTITLE2=Half Of My Mistakes
TTITLE3=Forever Is Over (Bourbon and Branch Water)
TTITLE4=And Then There's Me
TTITLE5=If You Can't Be Good (Be Lucky)
TTITLE6=Little Babies Like To Suck On Their Toes
TTITLE7=Fools That Dream
TTITLE8=Easier Said Than Done
TTITLE9=Making It Up As I Go Along
TTITLE10=Godspeed
EXTD=
EXTT0=
EXTT1=
EXTT2=
EXTT3=
EXTT4=
EXTT5=
EXTT6=
EXTT7=
EXTT8=
EXTT9=
EXTT10=
PLAYORDER=
